Coordinates
version=1
nRows=11
nColumns=40
inDegrees=yes

Units are S.I. units (second, meters, Newtons, ...)
If the header above contains a line with 'inDegrees', this indicates whether rotational values are in degrees (yes) or radians (no).

endheader
time	pelvis_tilt	pelvis_list	pelvis_rotation	pelvis_tx	pelvis_ty	pelvis_tz	hip_flexion_r	hip_adduction_r	hip_rotation_r	knee_angle_r	knee_angle_r_beta	ankle_angle_r	subtalar_angle_r	mtp_angle_r	hip_flexion_l	hip_adduction_l	hip_rotation_l	knee_angle_l	knee_angle_l_beta	ankle_angle_l	subtalar_angle_l	mtp_angle_l	lumbar_extension	lumbar_bending	lumbar_rotation	arm_flex_r	arm_add_r	arm_rot_r	elbow_flex_r	pro_sup_r	wrist_flex_r	wrist_dev_r	arm_flex_l	arm_add_l	arm_rot_l	elbow_flex_l	pro_sup_l	wrist_flex_l	wrist_dev_l
      0.66000000	     65.10206750	     79.19329551	    -67.42248410	      1.01792656	      0.31210900	      0.92926272	    -29.11619235	      5.44057252	     -0.51082943	     16.80417124	      0.29328812	    -11.37441249	      0.00000000	      0.00000000	     19.85703913	     -5.15129910	     -0.57815850	     15.89191002	      0.27736615	    -15.85245394	      0.00000000	      0.00000000	    -21.75543707	      3.05295204	      6.74051323	      5.88976633	    -17.62375239	     13.84956913	     51.48759013	     74.78844320	      0.00000000	      0.00000000	     -5.39121628	    -18.92598120	     15.22277511	     41.57358557	     78.30825027	      0.00000000	      0.00000000
      0.66400000	     65.13839595	     79.17842318	    -67.47122124	      1.02409409	      0.31217848	      0.92914668	    -29.07267117	      5.37635780	     -0.26697302	     17.43292900	      0.30426201	    -12.20276806	      0.00000000	      0.00000000	     19.94817528	     -5.17907320	     -0.58458765	     16.48753641	      0.28776180	    -16.46911254	      0.00000000	      0.00000000	    -21.75055632	      2.96454425	      6.70831575	      5.79235126	    -17.46804238	     13.72328048	     51.16820982	     74.79321486	      0.00000000	      0.00000000	     -5.33033653	    -18.94627669	     15.17281728	     41.47143534	     78.31546666	      0.00000000	      0.00000000
      0.66800000	     65.24932018	     79.20164838	    -67.53761964	      1.03046274	      0.31261244	      0.92899757	    -29.00723623	      5.28854570	     -0.05484384	     18.04584969	      0.31495949	    -13.05766174	      0.00000000	      0.00000000	     20.11648909	     -5.13949565	     -0.45219699	     17.26255437	      0.30128841	    -16.81252333	      0.00000000	      0.00000000	    -21.69208226	      2.91046915	      6.58377235	      5.65077586	    -17.38821750	     13.67799001	     50.93247475	     74.78740483	      0.00000000	      0.00000000	     -5.26670552	    -18.94327047	     15.12171609	     41.20082634	     78.40666571	      0.00000000	      0.00000000
      0.67200000	     65.34597608	     79.25128175	    -67.67023886	      1.03707626	      0.31261230	      0.92886690	    -28.86476814	      5.15888613	      0.00065913	     18.73246279	      0.32694315	    -14.09777432	      0.00000000	      0.00000000	     20.34578732	     -5.11374226	     -0.39923303	     18.26857657	      0.31884681	    -16.80072052	      0.00000000	      0.00000000	    -21.55870066	      2.77032067	      6.53528120	      5.55804105	    -17.19243211	     13.59249814	     50.46842823	     74.83662519	      0.00000000	      0.00000000	     -5.26485346	    -18.96795998	     15.25937550	     41.05938324	     78.43353913	      0.00000000	      0.00000000
      0.67600000	     65.58769694	     79.28205218	    -67.86248079	      1.04362419	      0.31328509	      0.92878020	    -28.73800336	      5.01185288	      0.05754257	     19.40873451	      0.33874632	    -15.11721328	      0.00000000	      0.00000000	     20.54694332	     -4.98746143	     -0.22789367	     19.24791345	      0.33593946	    -16.99896848	      0.00000000	      0.00000000	    -21.47923422	      2.70072587	      6.39932536	      5.41418613	    -17.10217626	     13.44762981	     50.14125401	     74.83653774	      0.00000000	      0.00000000	     -5.24549054	    -18.93527996	     15.32434021	     40.87651172	     78.42234609	      0.00000000	      0.00000000
      0.68000000	     65.73999391	     79.28225962	    -68.00638684	      1.05005778	      0.31358954	      0.92880639	    -28.65323649	      4.95018624	      0.51469636	     20.03269519	      0.34963649	    -16.04677255	      0.00000000	      0.00000000	     20.57511757	     -4.87108106	      0.31240682	     19.99348728	      0.34895218	    -17.32853615	      0.00000000	      0.00000000	    -21.45893911	      2.61793458	      6.31814503	      5.23557263	    -17.01233085	     13.34740826	     49.92982162	     74.83690866	      0.00000000	      0.00000000	     -5.25932517	    -18.97017793	     15.22961448	     40.78696001	     78.46069149	      0.00000000	      0.00000000
      0.68400000	     66.12626187	     79.36795441	    -68.23562540	      1.05696900	      0.31432611	      0.92873420	    -28.43524372	      4.78472790	      0.19444772	     20.74180920	      0.36201286	    -17.45473753	      0.00000000	      0.00000000	     20.80759792	     -4.66520199	      0.44268579	     21.09594861	      0.36819376	    -17.35751185	      0.00000000	      0.00000000	    -21.29404772	      2.52874829	      6.06346741	      5.03521951	    -16.87342210	     13.08025140	     49.51627876	     74.70382832	      0.00000000	      0.00000000	     -5.32100292	    -18.93189549	     15.22815391	     40.68362535	     78.45434558	      0.00000000	      0.00000000
      0.68800000	     66.36974253	     79.35087195	    -68.42576437	      1.06357360	      0.31476721	      0.92897675	    -28.33158296	      4.71883970	      0.55958033	     21.39120114	      0.37334689	    -18.54587742	      0.00000000	      0.00000000	     20.79830390	     -4.55076510	      0.83539035	     21.90287737	      0.38227733	    -17.56509837	      0.00000000	      0.00000000	    -21.28573097	      2.45889921	      5.89388361	      4.87741772	    -16.75730323	     12.96593081	     49.29847619	     74.64584491	      0.00000000	      0.00000000	     -5.26853472	    -18.94678965	     15.17479844	     40.45403869	     78.49559500	      0.00000000	      0.00000000
      0.69200000	     66.97322234	     79.53698749	    -68.67174333	      1.07095493	      0.31579573	      0.92880366	    -28.04110424	      4.53092838	     -0.22338522	     22.02773583	      0.38445652	    -20.28210578	      0.00000000	      0.00000000	     21.04715417	     -4.15445506	      1.25531820	     22.92756630	      0.40016152	    -17.28007441	      0.00000000	      0.00000000	    -20.95640183	      2.36288398	      5.44991130	      4.51771492	    -16.62075258	     12.74801260	     49.00127303	     74.48862437	      0.00000000	      0.00000000	     -5.43650279	    -18.99739898	     15.23782828	     40.41272303	     78.62370563	      0.00000000	      0.00000000
      0.69600000	     69.79634987	     79.57051275	    -71.19725341	      1.07806479	      0.31710715	      0.92925661	    -27.98801628	      3.95857942	     -0.98055574	     22.78906605	      0.39774424	    -21.60438624	      0.00000000	      0.00000000	     20.77014563	     -3.39970176	      1.76858852	     23.50125703	      0.41017431	    -17.27098754	      0.00000000	      0.00000000	    -20.99774050	      1.93444349	      4.89390002	      4.35949579	    -16.48172678	     12.68943628	     48.70046885	     73.86181145	      0.00000000	      0.00000000	     -5.45890968	    -18.99844812	     15.14145169	     40.19819180	     79.02634056	      0.00000000	      0.00000000
      0.70000000	     69.93701095	     79.49743722	    -71.31382828	      1.08458381	      0.31735558	      0.92977248	    -27.85318159	      3.90727208	     -0.74746618	     23.44932468	      0.40926792	    -22.96099898	      0.00000000	      0.00000000	     20.60256782	     -3.30690147	      2.19288602	     24.10076119	      0.42063764	    -17.18668945	      0.00000000	      0.00000000	    -21.04832129	      1.86975454	      4.79984687	      4.23515079	    -16.34215988	     12.49034879	     48.33745016	     73.84283679	      0.00000000	      0.00000000	     -5.60722903	    -19.12635087	     15.25084437	     40.48273728	     78.98627577	      0.00000000	      0.00000000
